<svg width="54" height="44" viewBox="0 0 54 44" fill="none" xmlns="http://www.w3.org/2000/svg">
<mask id="mask0" mask-type="alpha" maskUnits="userSpaceOnUse" x="1" y="18" width="53" height="26">
<path d="M2.22044 31.845L25.2432 43.1187C25.8427 43.4086 26.6432 43.5678 27.4358 43.5804C28.2283 43.593 29.0293 43.4593 29.6286 43.1884L52.6891 32.6479C53.9018 32.0951 53.9034 31.1591 52.6928 30.5654L29.67 19.2917C29.0717 19.0018 28.27 18.8426 27.4786 18.83C26.6872 18.8174 25.885 18.9511 25.2846 19.2219L2.22405 29.7624C1.01144 30.3176 1.00982 31.2513 2.22044 31.845Z" fill="#353535"/>
</mask>
<g mask="url(#mask0)">
<path d="M54.6508 23.0887C54.6508 23.0887 50.2882 20.9425 49.7097 20.6501C49.1313 20.3577 48.975 20.3746 48.3665 20.6444C47.7579 20.9143 30.73 28.8078 30.73 28.8078C30.0115 29.1029 29.2361 29.2435 28.4545 29.2204C27.6345 29.2082 26.8014 29.0425 26.1794 28.7398C26.1794 28.7398 9.6183 20.5901 8.84261 20.1978C7.9955 19.7792 7.75325 19.7756 6.99072 20.1282L2.26278 22.3062C1.00321 22.886 1.00141 23.8654 2.25876 24.4852L26.1474 36.255C26.7682 36.5707 27.6 36.7233 28.4212 36.7355C29.2424 36.7478 30.0748 36.607 30.6967 36.3229L54.6323 25.2735C55.9052 24.6855 55.907 23.7085 54.6508 23.0887Z" fill="#FF6D5C"/>
</g>
<path fill-rule="evenodd" clip-rule="evenodd" d="M7.4594 12.0958C7.64121 12.2401 7.78367 12.4435 7.86953 12.6814L10.3444 17.8597L6.39458 26.1029C6.44086 26.3235 6.46521 26.5522 6.46521 26.7867C6.46521 28.5946 5.01793 30.0602 3.23261 30.0602C1.44729 30.0602 1.90735e-06 28.5946 1.90735e-06 26.7867C1.90735e-06 25.2583 1.0344 23.9745 2.43295 23.6141L5.19526 17.8597L2.72043 12.7991C2.67197 12.6979 2.6465 12.5837 2.6465 12.4674C2.6465 12.3512 2.67197 12.237 2.72043 12.1358C2.77898 12.0469 2.85494 11.9761 2.94179 11.9295C3.02864 11.8829 3.12377 11.8619 3.21902 11.8683H6.84515C7.06422 11.8724 7.27759 11.9515 7.4594 12.0958Z" fill="black"/>
<path d="M2.56171 13.8838L25.5983 25.5031C26.1981 25.8018 26.9991 25.9652 27.7923 25.977C28.5854 25.9888 29.3869 25.8493 29.9867 25.5684L53.065 14.6355C54.2786 14.0621 54.2803 13.0944 53.069 12.4825L30.0324 0.863308C29.4337 0.564562 28.6316 0.401198 27.8396 0.38941C27.0477 0.377622 26.2449 0.517097 25.644 0.797987L2.56569 11.7308C1.35215 12.3066 1.35036 13.2719 2.56171 13.8838Z" fill="#335DFF"/>
</svg>
